<?xml version="1.0" encoding="UTF-8" standalone="no"?>
<!-- Created with sK1/UniConvertor (http://sk1project.org/) -->

<svg
   xmlns:dc="http://purl.org/dc/elements/1.1/"
   xmlns:cc="http://creativecommons.org/ns#"
   xmlns:rdf="http://www.w3.org/1999/02/22-rdf-syntax-ns#"
   xmlns:svg="http://www.w3.org/2000/svg"
   xmlns="http://www.w3.org/2000/svg"
   xmlns:sodipodi="http://sodipodi.sourceforge.net/DTD/sodipodi-0.dtd"
   xmlns:inkscape="http://www.inkscape.org/namespaces/inkscape"
   width="187.85806"
   height="93.296127"
   viewBox="0 0 150.28646 74.636899"
   id="svg3087"
   version="1.1"
   inkscape:version="0.48.3.1 r9886"
   sodipodi:docname="MC900157747.svg"
   style="fill-rule:evenodd">
  <metadata
     id="metadata3231">
    <rdf:RDF>
      <cc:Work
         rdf:about="">
        <dc:format>image/svg+xml</dc:format>
        <dc:type
           rdf:resource="http://purl.org/dc/dcmitype/StillImage" />
        <dc:title></dc:title>
      </cc:Work>
    </rdf:RDF>
  </metadata>
  <sodipodi:namedview
     pagecolor="#ffffff"
     bordercolor="#666666"
     borderopacity="1"
     objecttolerance="10"
     gridtolerance="10"
     guidetolerance="10"
     inkscape:pageopacity="0"
     inkscape:pageshadow="2"
     inkscape:window-width="1306"
     inkscape:window-height="744"
     id="namedview3229"
     showgrid="false"
     fit-margin-top="0"
     fit-margin-left="0"
     fit-margin-right="0"
     fit-margin-bottom="0"
     inkscape:zoom="2.26918"
     inkscape:cx="40.973943"
     inkscape:cy="26.343261"
     inkscape:window-x="60"
     inkscape:window-y="24"
     inkscape:window-maximized="1"
     inkscape:current-layer="svg3087" />
  <defs
     id="defs3089">
    <marker
       id="ArrowEnd"
       viewBox="0 0 10 10"
       refX="0"
       refY="5"
       markerUnits="strokeWidth"
       markerWidth="4"
       markerHeight="3"
       orient="auto">
      <path
         d="M 0,0 10,5 0,10 z"
         id="path3092"
         inkscape:connector-curvature="0" />
    </marker>
    <marker
       id="ArrowStart"
       viewBox="0 0 10 10"
       refX="10"
       refY="5"
       markerUnits="strokeWidth"
       markerWidth="4"
       markerHeight="3"
       orient="auto">
      <path
         d="M 10,0 0,5 10,10 z"
         id="path3095"
         inkscape:connector-curvature="0" />
    </marker>
  </defs>
  <path
     inkscape:connector-curvature="0"
     id="path3107"
     d="M 0.00909299,72.623146 150.16183,70.41564 l 0,2.783377 z"
     style="fill:#000000;stroke:none"
     sodipodi:nodetypes="cccc" />
  <path
     inkscape:connector-curvature="0"
     id="path3109"
     d="m 130.78335,8.5661075 1.67332,0 -0.52842,62.5754905 -1.1449,-62.5754905 z"
     style="fill:#000000;stroke:none" />
  <path
     inkscape:connector-curvature="0"
     id="path3111"
     d="m 134.57034,8.5661075 1.58525,0 -0.52842,62.3175865 -1.05683,-62.3175865 z"
     style="fill:#000000;stroke:none" />
  <path
     inkscape:connector-curvature="0"
     id="path3113"
     d="m 138.26926,8.5661075 1.67332,0 -0.52841,62.1241555 -1.14491,-62.1241555 z"
     style="fill:#000000;stroke:none" />
  <path
     inkscape:connector-curvature="0"
     id="path3115"
     d="m 142.05625,8.5661075 1.58526,0 -0.44035,62.1241555 -1.14491,-62.1241555 z"
     style="fill:#000000;stroke:none" />
  <path
     inkscape:connector-curvature="0"
     id="path3117"
     d="m 50.551947,27.486042 1.673322,0 -0.528418,44.546214 -1.144904,-44.546214 z"
     style="fill:#000000;stroke:none" />
  <path
     inkscape:connector-curvature="0"
     id="path3119"
     d="m 54.338939,27.486042 1.585253,0 -0.528418,44.28831 -1.056835,-44.28831 z"
     style="fill:#000000;stroke:none" />
  <path
     inkscape:connector-curvature="0"
     id="path3121"
     d="m 58.037862,27.56053 1.673322,0 -0.528417,44.16017 -1.144905,-44.16017 z"
     style="fill:#000000;stroke:none" />
  <path
     inkscape:connector-curvature="0"
     id="path3123"
     d="m 61.824855,27.56053 1.585252,0 -0.440348,45.707595 -1.144904,-45.707595 z"
     style="fill:#000000;stroke:none" />
  <path
     inkscape:connector-curvature="0"
     id="path3125"
     d="m 98.285666,51.545644 1.585253,0 -0.440348,19.429379 -1.144905,-19.429379 z"
     style="fill:#000000;stroke:none" />
  <path
     inkscape:connector-curvature="0"
     id="path3127"
     d="m 101.98459,51.620132 1.67332,0 -0.52842,19.06891 -1.1449,-19.06891 z"
     style="fill:#000000;stroke:none" />
  <path
     inkscape:connector-curvature="0"
     id="path3129"
     d="m 105.77158,51.620132 1.67332,0 -0.52841,19.06891 -1.14491,-19.06891 z"
     style="fill:#000000;stroke:none" />
  <path
     inkscape:connector-curvature="0"
     id="path3131"
     d="m 87.629245,40.446942 2.465949,0 0,1.117319 -2.465949,0 0,-1.117319 z"
     style="fill:#000000;stroke:none" />
  <path
     inkscape:connector-curvature="0"
     id="path3133"
     d="m 87.629245,45.139682 2.465949,0 0,1.191807 -2.465949,0 0,-1.191807 z"
     style="fill:#000000;stroke:none" />
  <path
     inkscape:connector-curvature="0"
     id="path3135"
     d="m 87.629245,49.832421 2.465949,0 0,1.191807 -2.465949,0 0,-1.191807 z"
     style="fill:#000000;stroke:none" />
  <path
     inkscape:connector-curvature="0"
     id="path3137"
     d="m 81.728583,40.446942 2.465948,0 0,1.117319 -2.377879,0 -0.08807,-1.117319 z"
     style="fill:#000000;stroke:none" />
  <path
     inkscape:connector-curvature="0"
     id="path3139"
     d="m 81.816652,45.139682 2.465949,0 0,1.191807 -2.465949,0 0,-1.191807 z"
     style="fill:#000000;stroke:none" />
  <path
     inkscape:connector-curvature="0"
     id="path3141"
     d="m 87.629245,35.679714 2.465949,0 0,1.191807 -2.465949,0 0,-1.191807 z"
     style="fill:#000000;stroke:none" />
  <path
     inkscape:connector-curvature="0"
     id="path3143"
     d="m 81.728583,35.679714 2.465948,0 0,1.191807 -2.377879,0 -0.08807,-1.191807 z"
     style="fill:#000000;stroke:none" />
  <path
     inkscape:connector-curvature="0"
     id="path3145"
     d="m 87.629245,54.301697 2.465949,0 0,1.191807 -2.465949,0 0,-1.191807 z"
     style="fill:#000000;stroke:none" />
  <path
     inkscape:connector-curvature="0"
     id="path3147"
     d="m 87.629245,58.994437 2.465949,0 0,1.191807 -2.465949,0 0,-1.191807 z"
     style="fill:#000000;stroke:none" />
  <path
     inkscape:connector-curvature="0"
     id="path3149"
     d="m 21.74656,37.33047 -2.465949,0 0,1.191807 2.465949,0 0,-1.191807 z"
     style="fill:#000000;stroke:none" />
  <path
     inkscape:connector-curvature="0"
     id="path3151"
     d="m 21.74656,42.02321 -2.465949,0 0,1.191807 2.465949,0 0,-1.191807 z"
     style="fill:#000000;stroke:none" />
  <path
     inkscape:connector-curvature="0"
     id="path3153"
     d="m 21.65849,46.71595 -2.465948,0 0,1.191807 2.465948,0 0,-1.191807 z"
     style="fill:#000000;stroke:none" />
  <path
     inkscape:connector-curvature="0"
     id="path3155"
     d="m 28.615988,37.33047 -2.465949,0 0,1.191807 2.465949,0 0,-1.191807 z"
     style="fill:#000000;stroke:none" />
  <path
     inkscape:connector-curvature="0"
     id="path3157"
     d="m 28.527918,42.02321 -2.465948,0 0,1.191807 2.465948,0 0,-1.191807 z"
     style="fill:#000000;stroke:none" />
  <path
     inkscape:connector-curvature="0"
     id="path3159"
     d="m 21.74656,51.259714 -2.465949,0 0,1.117319 2.465949,0 0,-1.117319 z"
     style="fill:#000000;stroke:none" />
  <path
     inkscape:connector-curvature="0"
     id="path3167"
     d="m 118.18939,41.862213 -2.28981,0 0,1.117319 2.28981,0 0,-1.117319 z"
     style="fill:#000000;stroke:none" />
  <path
     inkscape:connector-curvature="0"
     id="path3169"
     d="m 118.18939,46.257001 -2.28981,0 0,1.042831 2.28981,0 0,-1.042831 z"
     style="fill:#000000;stroke:none" />
  <path
     inkscape:connector-curvature="0"
     id="path3171"
     d="m 118.10132,50.577301 -2.2898,0 0,1.117319 2.2898,0 0,-1.117319 z"
     style="fill:#000000;stroke:none" />
  <path
     inkscape:connector-curvature="0"
     id="path3173"
     d="m 118.18939,54.972089 -2.28981,0 0,1.117319 2.28981,0 0,-1.117319 z"
     style="fill:#000000;stroke:none" />
  <path
     inkscape:connector-curvature="0"
     id="path3175"
     d="m 118.18939,59.366877 -2.28981,0 0,1.117319 2.28981,0 0,-1.117319 z"
     style="fill:#000000;stroke:none" />
  <path
     inkscape:connector-curvature="0"
     id="path3185"
     d="m 94.674813,29.944144 1.144905,0 0,1.145773 0,40.542834 -2.377879,0 0,-39.30892 -16.997432,0 -0.323427,39.519134 -2.377879,0 0.323427,-40.753048 0,-1.145773 1.144905,0 z"
     style="fill:#000000;stroke:none"
     sodipodi:nodetypes="ccccccccccccc" />
  <path
     inkscape:connector-curvature="0"
     id="path3187"
     d="m 1.2329741,54.019661 10.5683509,0 0,-20.807641 0,-1.300477 1.232975,0 21.136702,0 1.144905,0 0,1.300477 0,12.168764 8.278542,0 0,-22.85125 0,-1.300478 1.232974,0 24.571417,0 1.232974,0 0,1.300478 -0.215618,49.845938 -2.162261,-0.3692 0,-48.26915 -22.193538,0 -0.215617,48.550844 -2.465955,0 0.215624,-24.399126 -9.423447,0 -1.232974,0 0,-1.207578 0,-12.168764 -18.670754,0 0,37.899638 -2.465949,0 0,-15.884409 -9.4234462,0 0,16.204975 -2.377878996496,-0.184595 0,-17.227968 0,-1.300478 z"
     style="fill:#000000;stroke:none"
     sodipodi:nodetypes="ccccccccccccccccccccccccccccccccccccc" />
  <path
     inkscape:connector-curvature="0"
     id="path3191"
     d="m 110.87962,37.051737 0,-0.975045 1.1449,0 5.46032,0 0,-14.775695 0,-0.975045 1.23297,0 6.86943,0 0,-19.2759073 0,-1.050049301014 1.23297,0 22.10547,0 1.23298,0 0,1.050049301014 0,69.9033603 -2.37788,0 0,-68.9283144 -19.72759,0 0,70.5033154 -2.46595,0 0,-50.177359 -5.72452,0 0,14.70069 0,1.05005 -1.14491,0 -5.46031,0 0,33.826591 -2.37788,0 0,-22.576062 -14.795694,0 0,-2.025095 14.795694,0 z"
     style="fill:#000000;stroke:none"
     sodipodi:nodetypes="ccccccccccccccccccccccccccccccccc" />
  <path
     inkscape:connector-curvature="0"
     id="path3207"
     d="m 50.728086,74.413439 0,0.07449 -0.08807,0 0,0.07449 0,0.07449 0,-0.07449 0,0 0.08807,0 0,-0.07449 0,0 0,-0.07449 0,0 z"
     style="fill:#000000;stroke:none" />
  <g
     id="g3227"
     transform="matrix(-1.2231888,0,0,1.0345546,168.12485,-748.82097)" />
  <text
     xml:space="preserve"
     style="font-size:14.40000153px;font-style:normal;font-weight:normal;line-height:125%;letter-spacing:0px;word-spacing:0px;fill:#000000;fill-opacity:1;stroke:none;font-family:Sans"
     x="-0.086400203"
     y="29.987419"
     id="text3414"
     sodipodi:linespacing="125%"><tspan
       sodipodi:role="line"
       id="tspan3416"
       x="-0.086400203"
       y="29.987419"
       style="font-size:9.60000038px;font-style:normal;font-variant:normal;font-weight:bold;font-stretch:condensed;font-family:PT Sans Narrow;-inkscape-font-specification:PT Sans Narrow Bold Condensed">fla<tspan
   style="font-size:9.60000038px;font-style:normal;font-variant:normal;font-weight:bold;font-stretch:condensed;fill:#ff6600;font-family:PT Sans Narrow;-inkscape-font-specification:PT Sans Narrow Bold Condensed"
   id="tspan3418">t</tspan><tspan
   style="font-size:9.60000038px;font-style:normal;font-variant:normal;font-weight:bold;font-stretch:condensed;fill:#aa4400;font-family:PT Sans Narrow;-inkscape-font-specification:PT Sans Narrow Bold Condensed"
   id="tspan3420">S</tspan>tat.ru</tspan></text>
  <text
     xml:space="preserve"
     style="font-size:14.40000153px;font-style:normal;font-weight:normal;line-height:125%;letter-spacing:0px;word-spacing:0px;fill:#000000;fill-opacity:1;stroke:none;font-family:Sans"
     x="-0.64800024"
     y="10.342599"
     id="text3487"
     sodipodi:linespacing="125%"><tspan
       sodipodi:role="line"
       id="tspan3489"
       x="-0.64800024"
       y="10.342599"
       style="font-style:normal;font-variant:normal;font-weight:bold;font-stretch:condensed;font-family:PT Sans Narrow;-inkscape-font-specification:PT Sans Narrow Bold Condensed">Квартиры России</tspan></text>
  <text
     xml:space="preserve"
     style="font-size:14.40000153px;font-style:normal;font-weight:normal;line-height:125%;letter-spacing:0px;word-spacing:0px;fill:#000000;fill-opacity:1;stroke:none;font-family:Sans"
     x="-0.1344002"
     y="20.001465"
     id="text3491"
     sodipodi:linespacing="125%"><tspan
       sodipodi:role="line"
       id="tspan3495"
       x="-0.1344002"
       y="20.001465"
       style="font-size:9.60000038px;font-style:normal;font-variant:normal;font-weight:bold;font-stretch:condensed;font-family:PT Sans Narrow;-inkscape-font-specification:PT Sans Narrow Bold Condensed">заметки о жилищном рынке</tspan></text>
</svg>
